# xmcd
#
# Track frame offsets: 
#        150
#        13280
#        33132
#        49458
#        59827
#        73987
#        85832
#        97153
#        114804
#        142435
#        163918
#        175271
#
# Disc length: 2594 seconds
#
# Revision: 0
# Processed by: cddbd v1.5.2PL0 Copyright (c) Steve Scherf et al.
# Submitted via: ExactAudioCopy v1.1
#
DISCID=b90a200c
DTITLE=Hank Williams Jr. - Hank Jr. Sings Hank Sr.
DYEAR=2015
DGENRE=Country
TTITLE0=There's A Tear In My Beer - Hank Williams Jr. and Hank Williams
TTITLE1=Kaw-Liga - Hank Williams Jr.
TTITLE2=Ramblin' Man - Hank Williams Jr.
TTITLE3=Honky Tonkin' - Hank Williams Jr.
TTITLE4=Move It On Over - Hank Williams Jr.
TTITLE5=Low Down Blues - Hank Williams Jr.
TTITLE6=Mind Your Own Business - Hank Williams Jr., Reba McEntire, Wil
TTITLE6=lie Nelson and Tom Petty
TTITLE7=You're Gonna Change (Or I'm Gonna Leave) - Hank Williams Jr.
TTITLE8=Long Gone Lonesome Blues - Hank Williams Jr.
TTITLE9=If The Good Lord's Willin' (And The Creeks Don't Rise) - Hank 
TTITLE9=Williams Jr.
TTITLE10=Never Again (Will I Knock On Your Door) - Hank Williams Jr.
TTITLE11=Family Tradition - Hey, Good Lookin' (Live) - Hank Williams J
TTITLE11=r.
EXTD=
EXTT0=
EXTT1=
EXTT2=
EXTT3=
EXTT4=
EXTT5=
EXTT6=
EXTT7=
EXTT8=
EXTT9=
EXTT10=
EXTT11=
PLAYORDER=
